<svg xmlns="http://www.w3.org/2000/svg" viewBox="0 0 64 64" fill="none">
  <rect width="64" height="64" rx="16" fill="#EDE9FE"/>
  <path fill-rule="evenodd" clip-rule="evenodd" d="M32 18c-7.7 0-14 6.3-14 14 0 6.2 4 11.5 9.6 13.4.7.1 1-.3 1-.7v-2.5c-3.9.9-4.7-1.9-4.7-1.9-.6-1.6-1.5-2-1.5-2-1.2-.8.1-.8.1-.8 1.3.1 2 1.4 2 1.4 1.2 2 3.1 1.4 3.9 1.1.1-.9.5-1.4.9-1.7-3.1-.4-6.4-1.6-6.4-7 0-1.5.5-2.8 1.4-3.8-.1-.4-.6-1.9.1-4 0 0 1.1-.4 3.7 1.4 1.1-.3 2.2-.5 3.4-.5s2.3.2 3.4.5c2.6-1.8 3.7-1.4 3.7-1.4.7 2.1.2 3.6.1 4 .9 1 1.4 2.3 1.4 3.8 0 5.4-3.3 6.6-6.4 7 .5.4 1 1.2 1 2.5v3.7c0 .4.3.8 1 .7A14 14 0 0032 18z" fill="#7C3AED"/>
</svg>
